<?xml version="1.0" encoding="UTF-8"?><svg xmlns="http://www.w3.org/2000/svg" xmlns:xlink="http://www.w3.org/1999/xlink" viewBox="0 0 48 48" version="1.1"><g id="surface1"><path d="M44 24c0 11.047-8.953 20-20 20S4 35.047 4 24 12.953 4 24 4s20 8.953 20 20" fill="#DBA111"/><path d="M16.465 38.203c-.266-.133-.488.211-.602.43-.062.125-.136.312-.136.469 0 .113.039.21.148.27.07.034.133.042.2.019.136-.043.284-.211.405-.446.118-.238.165-.457.118-.593-.02-.067-.063-.11-.133-.149z" fill="#034694"/><path d="M20.395 39.656c-.028.117-.04.18-.067.297l.05.012c.161.035.177-.047.192-.106.004-.02.004-.039.004-.054 0-.028-.004-.051-.015-.067-.024-.035-.082-.062-.164-.082z" fill="#034694"/><path d="M13.664 37.246c-.14.2-.34.559-.098.73.254.18.547-.171.66-.331.114-.16.352-.551.098-.735-.242-.172-.515.137-.66.336z" fill="#034694"/><path d="M20.32 40.469s-.054-.008-.093-.02c-.032.145-.051.239-.079.38l.079.019c.078.015.136.011.168-.008.035-.02.054-.082.062-.125a.245.245 0 0 0 .008-.063c0-.066-.024-.156-.145-.183z" fill="#034694"/><path d="M24 4.668C13.32 4.668 4.668 13.32 4.668 24c0 10.68 8.652 19.332 19.332 19.332 10.68 0 19.332-8.656 19.332-19.332 0-10.68-8.656-19.332-19.332-19.332zm12.465 4.965l-1.55 4.566-.954-.832s.223-.648.3-.879c-.16-.14-.398-.347-.562-.488-.215.113-.812.434-.812.434l-.696-.606 3.625-1.871zM31.27 7.016l2.261 1.14-.36.711-1.187-.601c-.109.218-.203.398-.308.617.304.156 1.117.566 1.117.566l-.36.711s-.812-.414-1.117-.566c-.12.238-.246.48-.363.719.32.16 1.203.609 1.203.609l-.355.707-2.281-1.149 1.62-3.207zm-3.707 1.332c-.356-.254-.891-.637-.692-1.438.078-.312.277-.582.559-.75a1.385 1.385 0 0 1 1.054-.14c.524.128.942.546 1.036 1.039l.05.25-.797.27-.062-.321c-.063-.293-.195-.363-.328-.399-.227-.054-.297.153-.313.22-.03.124.059.214.371.444.375.274.942.692.735 1.524-.2.785-.996 1.09-1.653.926-.585-.149-.941-.457-1.09-.95l-.078-.253.797-.325.098.293c.082.25.164.34.355.387.075.02.165.004.239-.04a.274.274 0 0 0 .12-.16c.056-.218-.038-.32-.401-.577zm-4.231-2.516l.008-.293 1.203.027-.066 3.04c.355.007 1.324.03 1.324.03l-.016.84-2.527-.054zm-1.934-.117l.286-.059.156.778s-.953.195-1.305.265l.14.68c.337-.07 1.227-.25 1.227-.25l.157.781s-.891.18-1.227.246c.05.262.105.528.156.79l1.325-.266.16.777-2.504.508-.77-3.809zm-5.613 1.773s.461.977.617 1.313c.239-.11.465-.219.7-.328l-.618-1.317.825-.386.265-.125 1.653 3.511-1.086.516s-.512-1.086-.68-1.438c-.234.11-.465.22-.7.329l.68 1.437-1.09.516-1.656-3.512zm-3.82 2.414a1.856 1.856 0 0 1 1.672-.386l.277.07-.18.773-.277-.054c-.371-.075-.648-.082-.863.105-.196.176-.301.36-.313.57-.02.29.133.63.442.98.261.302.597.493.89.513a.694.694 0 0 0 .524-.184.89.89 0 0 0 .261-.957l-.093-.289.808-.219.078.278c.2.73-.007 1.386-.593 1.902a1.989 1.989 0 0 1-2.797-.2c-.778-.89-.707-2.136.164-2.902zm.484 26.664s-.328-.312-.465-.445l-.613.645-.527-.504 1.394-1.465.133-.14 1.04.991-.348.368-.512-.489c-.086.09-.133.137-.219.23l.465.442zm1.63 2.012a1.084 1.084 0 0 1-.806-.187 1.077 1.077 0 0 1-.441-.696c-.05-.304.027-.62.219-.886.187-.27.46-.446.761-.496.282-.047.567.019.805.187a1.067 1.067 0 0 1 .457.883c0 .242-.078.488-.23.699-.192.27-.461.445-.766.496zm3.077.707c-.148.293-.39.508-.683.606-.27.086-.563.062-.825-.07a1.057 1.057 0 0 1-.539-.622 1.184 1.184 0 0 1 .082-.91c.297-.586.946-.82 1.504-.535.559.281.758.941.461 1.531zm1.969.055s-.262-.09-.344-.121l-.566 1.617-.692-.242.567-1.617c-.078-.028-.344-.118-.344-.118l.106-.297.062-.18 1.379.481zm2.164.656a.594.594 0 0 1-.215.356.608.608 0 0 1 .102.503.669.669 0 0 1-.285.434c-.114.074-.313.148-.618.086l-.949-.2.418-1.98.04-.187.933.195c.441.094.586.414.586.668 0 .043-.004.09-.012.125zm1.453 1.703l-.156-.488c-.121-.012-.242-.02-.367-.031l-.219.465-.578-.043 1.015-2.075.215-.43.86 2.665zm1.27.043l-.094-2.215.73-.03s.059 1.382.07 1.683l.735-.028.024.532zm2.07-.133l-.344-2.191.535-.082.192-.031s.21 1.363.258 1.664l.726-.114.082.528zm5.355-2.086c-.027.434-.261.747-.68.914a1.13 1.13 0 0 1-1.464-.636 1.178 1.178 0 0 1-.004-.914c.121-.282.348-.496.64-.614.313-.128.68-.086.973.106l.16.105-.269.426-.164-.097c-.176-.102-.305-.153-.442-.098a.44.44 0 0 0-.25.219c-.058.14-.042.34.051.57.078.2.211.351.356.414.09.039.183.039.281 0a.454.454 0 0 0 .29-.422l.007-.203.527.039zm.805.188l-1.078-1.934.469-.265.172-.094.82 1.473c.184-.106.64-.36.64-.36l.258.465zm2.473-1.484c-.227.168-.469.242-.684.207a.715.715 0 0 1-.48-.313l-.887-1.203.594-.434.887 1.211c.03.043.07.067.117.075a.216.216 0 0 0 .152-.036c.059-.043.125-.109.133-.172.004-.023.004-.058-.035-.117l-.899-1.222.274-.203.16-.114.918 1.258c.203.277.21.727-.25 1.063zm1.95-1.727l-.696.676-1.543-1.594.687-.66c.38-.371.793-.223.977-.031.105.109.16.238.172.375a.604.604 0 0 1 .476.195.692.692 0 0 1 .203.48c-.004.133-.054.344-.277.559zM24 37.777c-7.61 0-13.777-6.168-13.777-13.777 0-7.61 6.168-13.777 13.777-13.777 7.61 0 13.777 6.168 13.777 13.777 0 7.61-6.168 13.777-13.777 13.777z" fill="#034694"/><path d="M35.938 35.957s-.04.035-.067.066l.27.278c.03-.031.058-.055.058-.055.059-.059.09-.11.09-.144v-.004c0-.04-.039-.086-.07-.121-.035-.036-.157-.141-.282-.02z" fill="#034694"/><path d="M35.305 35.438l.215.222.035-.035c.05-.05.07-.09.07-.121 0-.043-.027-.07-.05-.094-.052-.055-.114-.113-.27.028z" fill="#034694"/><path d="M37.36 24c0 7.379-5.981 13.36-13.36 13.36S10.64 31.378 10.64 24 16.622 10.64 24 10.64 37.36 16.622 37.36 24M12.546 35.32c.058.059.512.489.512.489l.148-.157-.828-.793-.035.036-1.293 1.359.316.305.613-.641c.06.059.465.445.465.445l.149-.156s-.406-.387-.465-.445c.05-.059.363-.383.418-.442m1.984 1.297a.947.947 0 0 1 .387.606c.008.05.012.105.012.16 0 .21-.07.426-.203.617-.168.234-.407.39-.672.434a.912.912 0 0 1-.696-.164.91.91 0 0 1-.382-.602c-.047-.262.023-.54.191-.777.168-.239.406-.391.672-.438a.94.94 0 0 1 .691.164m-.187 1.113c.14-.195.426-.68.062-.937-.355-.254-.719.172-.86.367-.136.2-.421.68-.062.934.36.258.723-.172.86-.364zm2.285.153c.488.246.656.82.398 1.336-.132.258-.343.449-.597.531a.932.932 0 0 1-.715-.059.915.915 0 0 1-.469-.535 1.02 1.02 0 0 1 .074-.797c.262-.515.825-.722 1.309-.476m-.817 1.617a.39.39 0 0 0 .31.027c.233-.078.405-.359.487-.52.082-.16.207-.464.13-.698a.394.394 0 0 0-.208-.235c-.394-.199-.687.278-.797.492-.105.215-.316.735.079.934zm2.176-.89l-.054.16s.273.097.343.12l-.566 1.614.414.144.566-1.613.344.121.074-.203-1.105-.387-.016.043m2.696.735c.375.082.472.34.472.523 0 .04-.004.074-.011.102a.438.438 0 0 1-.32.347.466.466 0 0 1 .222.395c0 .039-.004.074-.012.117a.523.523 0 0 1-.223.34c-.132.086-.304.11-.507.066l-.805-.168.387-1.84.008-.046.789.164m-.274.164l-.129-.028c-.015.075-.105.512-.125.586.07.016.192.04.192.04.113.027.312.027.363-.215a.348.348 0 0 0 .012-.086.244.244 0 0 0-.043-.145c-.047-.074-.137-.125-.27-.152zm-.062.82l-.235-.05c-.015.077-.125.59-.14.667l.222.047c.121.024.215.016.282-.027.058-.04.101-.113.125-.219 0-.004.007-.039.007-.086 0-.11-.035-.285-.261-.332zm2.218-.738l.059-.11.684 2.118-.457-.035s-.141-.434-.157-.489c-.054-.004-.508-.039-.562-.047a68.5 68.5 0 0 0-.219.461l-.266-.02.918-1.878m-.101.758c-.063.132-.188.39-.23.472l.39.032c-.027-.09-.113-.364-.16-.504zm2.113.984l-.07-1.684-.047.004-.39.016.077 1.926 1.176-.051-.012-.238c0-.004-.648.023-.734.027m2.024-.195c-.012-.09-.262-1.664-.262-1.664l-.047.007-.387.06.297 1.901 1.16-.18-.035-.238s-.64.098-.726.114m4.46-1.637a.614.614 0 0 1-.382.555.512.512 0 0 1-.395-.004c-.18-.074-.336-.254-.43-.492-.109-.27-.125-.504-.05-.68a.578.578 0 0 1 .332-.3c.21-.083.402.015.57.108l.04.028.116-.188-.039-.027a.91.91 0 0 0-.84-.094 1.003 1.003 0 0 0-.558.535c-.11.246-.106.536 0 .801a.982.982 0 0 0 1.277.559c.363-.145.563-.41.59-.785l.004-.051-.235-.016v.051m1.504-.41a397.12 397.12 0 0 0-.82-1.473l-.043.024-.344.195.938 1.68 1.027-.575-.117-.21s-.566.316-.64.359m1.449-2.98l-.043.03-.157.114.813 1.105a.294.294 0 0 1 .062.223c-.015.133-.136.234-.187.27a.382.382 0 0 1-.266.062.31.31 0 0 1-.21-.133l-.801-1.093-.356.261.793 1.086c.11.149.238.235.39.258.235.035.462-.098.571-.18.387-.281.39-.636.223-.86l-.832-1.144m2.617-.547c.105.11.164.239.16.376-.004.156-.078.312-.23.457l-.59.574-1.34-1.383.578-.563c.328-.32.648-.164.773-.035a.448.448 0 0 1 .114.461.474.474 0 0 1 .535.114m-.863-.06c0-.062-.028-.124-.094-.194-.145-.153-.305-.141-.485.035 0 0-.058.054-.093.09.054.054.363.375.418.43l.14-.134c.051-.05.114-.128.114-.226zm.367 1.005c.047-.043.164-.156.164-.156.086-.086.133-.168.133-.25 0-.075-.036-.149-.11-.223-.011-.012-.25-.254-.488-.027 0 0-.121.12-.172.168.059.054.418.43.473.488zM14.98 11.062l-.43.114.032.097c.137.426.016.872-.32 1.165a.887.887 0 0 1-.66.23c-.352-.023-.723-.234-1.024-.578-.344-.395-.512-.781-.488-1.125.015-.258.144-.492.379-.7.304-.269.691-.218 1.027-.152l.094.02.094-.406-.094-.024a1.656 1.656 0 0 0-1.496.348c-.79.691-.852 1.816-.145 2.625a1.793 1.793 0 0 0 2.524.183c.535-.468.714-1.043.53-1.703l-.023-.094m2.41-4.117l-.648.305s.547 1.16.617 1.313c-.136.066-.91.43-1.05.496-.07-.153-.618-1.313-.618-1.313l-.738.348 1.492 3.16.739-.348-.68-1.437c.14-.067.91-.43 1.05-.492.075.152.68 1.437.68 1.437l.739-.348-1.493-3.164-.09.043m3.45 2.23a124.29 124.29 0 0 1-.235-1.171c.16-.031 1.227-.246 1.227-.246l-.082-.399s-1.066.215-1.227.246c-.03-.148-.183-.91-.214-1.058.164-.031 1.304-.262 1.304-.262l-.082-.402-2.101.426.691 3.425 2.121-.43-.082-.398c.004 0-1.156.235-1.32.27m3.504-3.422l-.817-.016v.094l-.074 3.398 2.14.047.012-.457-1.324-.027.063-3.04m4.086.919c.258.066.406.238.468.547l.024.105.426-.144-.016-.082c-.086-.422-.441-.778-.895-.891a1.184 1.184 0 0 0-.906.117 1.029 1.029 0 0 0-.472.633c-.168.668.27.98.617 1.23.351.25.566.422.476.782a.445.445 0 0 1-.21.281.508.508 0 0 1-.383.059c-.258-.063-.391-.204-.493-.512l-.03-.098-.442.18.023.086c.13.422.442.687.953.816.567.14 1.25-.113 1.418-.785.172-.707-.289-1.047-.66-1.32-.316-.235-.512-.39-.445-.649.058-.23.25-.43.547-.355m3.468 1.336c.153.074 1.188.597 1.188.597l.187-.363-1.914-.969-.047.086-1.53 3.036 1.933.976.183-.363s-1.054-.531-1.207-.61l.54-1.062c.144.074 1.117.562 1.117.562l.183-.363-1.117-.562c.066-.137.418-.832.484-.965m4.008 2.12l.223-.1-1.305 3.835-.636-.554s.265-.774.3-.883c-.082-.07-.675-.586-.758-.66l-.816.433-.375-.328 3.367-1.742m-1.277 1.883c.059-.168.21-.606.305-.867-.25.128-.657.34-.817.421.13.114.383.332.512.446zM10.004 27.816l-.024-.07-.011-.074c-.031-.25-.094-.711-.453-.797a.484.484 0 0 0-.301.035.536.536 0 0 0-.008-.305c-.133-.343-.602-.34-.852-.335h-.074l-.074-.012c-.246-.047-.707-.133-.898.183a.498.498 0 0 0-.063.297.48.48 0 0 0-.289-.086c-.367.02-.508.465-.582.707l-.023.07-.036.067c-.12.223-.343.633-.101.91a.47.47 0 0 0 .262.149.47.47 0 0 0-.168.25c-.098.355.285.629.488.773l.058.043.055.055c.172.183.492.523.832.379a.51.51 0 0 0 .227-.203c.039.105.101.183.183.238.309.2.688-.078.887-.227l.063-.043.062-.035c.23-.11.652-.308.621-.676a.473.473 0 0 0-.125-.273.497.497 0 0 0 .285-.106c.285-.23.137-.675.059-.914m31.879-.324l-.035-.062-.024-.07c-.074-.243-.215-.688-.582-.708a.503.503 0 0 0-.289.082.509.509 0 0 0-.062-.293c-.192-.316-.653-.23-.899-.183l-.074.012h-.074c-.25-.004-.719-.008-.852.335a.464.464 0 0 0-.008.301.479.479 0 0 0-.3-.031c-.36.082-.422.547-.454.797l-.011.074-.02.07c-.082.239-.23.68.055.914a.523.523 0 0 0 .285.102.473.473 0 0 0-.125.273c-.031.368.39.57.617.68l.067.031.062.043c.203.153.578.43.887.23a.486.486 0 0 0 .183-.241.51.51 0 0 0 .227.203c.34.144.66-.196.832-.38l.055-.05.058-.043c.203-.144.586-.418.489-.773a.47.47 0 0 0-.168-.25c.109-.028.199-.078.261-.153.243-.277.02-.687-.101-.91m-33.48-9.55a1.848 1.848 0 1 0-.644 3.638 1.848 1.848 0 0 0 .643-3.639m29.696 2.141a1.847 1.847 0 0 0 2.14 1.496 1.85 1.85 0 0 0 1.5-2.14 1.848 1.848 0 0 0-3.64.644" fill="#FFF"/><path d="M29.195 17.797c.184.3.528.488.903.457a.95.95 0 0 0 .851-1.027c-.004-.02-.008-.04-.008-.055-.058.27-.375.496-.777.531-.305.031-.578-.058-.742-.21l-.227.304z" fill="#D1D3D4"/><path d="M33.555 23.477c-.278-.735-1.227-1.051-2.125-.711-.375.14-.684.375-.89.656.593-1.695 3.01-2.055 3.01-3.633 0-2.64-3.753-1.902-3.206 0 0-.863 1.375-1.02 1.375 0 0 1.023-2.395 1.691-2.395 3.418 0 1.902 1.903 2.078 1.707 3.82-.031.297-.351.692-.82.692-2.914 0-1.875-3.586-2.89-4.68l.05-.734c.59.36 2.152-.485 1.121-1.778 0 .637-1.316.602-1.316-.597 0-1.621 1.512-.774 1.586-.418-.07-.59-.098-.965 0-1.305-.82.266-.895-.207-.793-.39.12-.212.277-.458.597-.458.172 0 .274.024.336.067.102.066.176-.09.16.058.086-.132.051.032.137-.101.086-.133.203-.281.406-.485l-.007-.296.238.085.227-.367c-.247-.511-.583-.265-.829-.898-.207-.055-3.418.293-3.324-.988-.262 0-.883.144-.496.668-.3.035-.516-.305-.965.613.563-.106.274.523.274.7 0 1.163-1.547 1.144-1.547.6-.371.36-.16 1.153.402 1.348 0 0-.215.848-.742 1.383-.785-.031-2.043-.168-2.77-.855-.312-.293-.558-.453-.77-.54v-.382c.31-.153.65-.418 1-.867a1.699 1.699 0 0 0 .36-1.383 1.027 1.027 0 0 0-.011-.051.895.895 0 0 0-.028-.11.193.193 0 0 0-.015-.05.901.901 0 0 0-.04-.11c-.003-.011-.007-.027-.015-.043-.02-.046-.043-.09-.067-.132a.221.221 0 0 0-.03-.051 1.376 1.376 0 0 0-.048-.078c-.015-.024-.027-.043-.043-.063-.015-.02-.03-.043-.047-.058-.015-.024-.035-.043-.05-.067l-.04-.039a1.736 1.736 0 0 0-.148-.144l-.012-.012c-.03-.024-.058-.047-.09-.07-.007-.008-.015-.012-.023-.02l-.101-.066s-.004 0-.004-.004c-.332-.2-.73-.309-1.153-.274-1.011.082-1.765.93-1.68 1.895.067.75.622 1.348 1.34 1.539-.253.14-.464.223-.515.223.008.003.02.011.031.02.004 0 .004.003.012.003.008.008.02.016.031.02a.012.012 0 0 0 .008.003c.016.008.035.02.055.028 0 0 .004.004.007.004.016.008.036.015.051.023l.016.004c.047.02.094.035.148.055.008 0 .016.004.024.004a.409.409 0 0 0 .066.015c.008 0 .016.004.024.004a.721.721 0 0 0 .09.016h.007v.219c-.011.003-.02.003-.031.003-.328.055-.543.157-.64.45-.098.297.003.402.156.61-.13.233-.473.32-.028.835-.031.191.012.504.293.598.094.03.168.047.25.062v3.863c-.281.149-.422.336-.496.508 0 0-.226-.504-.215.496.258-.203.157.23.157.23-.348.454.097.43.097.43.301-.3.238.137.238.137 0 .535.22.742.22.746v2.942h-.255v.812h.45a.624.624 0 0 0-.395.625c.031.348.352.606.715.578.363-.03.637-.332.605-.68a.63.63 0 0 0-.394-.527h.414l-.004-.812-.246.004v-2.614a.575.575 0 0 0 .27.075c-.063-.344.14-.57.14-.57.105-.16.258-.286.43-.372.52-.258 1.226-.191 1.437.23 1.34-.355 2.488-1.698 2.488-1.698l.66 1.12c-1.398.47-4.44 3.114-2.327 4.032 0 .265-.04 2.246-1.305 2.086-1.828-.223-2.285.531-1.934 1.383-.168.714.387.964.387.964-.082-.414.113-.757.871-.753-.004.757.484.894.484.894.004-.648.454-.887.852-.887-.004.535.617.739.617.739s-.156-.618.543-.739c1.774-.308.11-2.132 2.805-2.632 0 0-1.344-.204-1.344-.938 0-.668 1.215-1.125 1.633-1.125.86 1.64 1.789 1.652 2.035 1.664.379.426.25 1.856-.297 1.828-2.008-.11-1.933 1.114-1.71 1.364-.024.472.343.746.343.746 0-.508.484-.649 1.105-.618-.035.621.364.715.364.715.011-.625.472-.73.8-.715-.023.438.41.567.41.567s-.042-.555.544-.555c1.109 0-.504-2.379 1.664-4.73-1.903.879-2.914-1.32-2.914-1.743.976 1.145 4.144 1.372 4.144-.582 0-1.867-2.05-2.562-1.09-3.277.559-.418 1.657.422 1.028 1.29.898-.333 1.398-1.204 1.125-1.934zm-12.16.058c-.72.422-1.2.953-1.852 1.188a.623.623 0 0 1-.246.039v-3.645a4.06 4.06 0 0 1 1.144.297c.524.281.524.871-.132 1.012.414.793 1.851.402 2.164-.242.156-.016.289.257.418.52-.203.105-.614.312-1.496.831zm6.289-8.05l-.164.222s-.22.07-.165-.242zm-1.106-.02h.473s-.02.379.324.414l-.074.121s-.918-.242-.723-.535z" fill="#D1D3D4"/><path d="M32.977 22.895c-.278-.73-1.23-1.051-2.13-.711-.374.14-.683.378-.89.656.594-1.695 3.012-2.055 3.012-3.63 0-2.644-3.754-1.901-3.207 0 0-.026.004-.058.004-.081.097-1.078 2.02-1.297 2.02.105 0 1.196-2.462 1.86-2.462 3.473 0 1.656 1.817 2.07 1.817 3.813 0 .207-.11 1.097-1.317 1.097-1.168 0-1.726-.648-2.047-1.5-.593-1.148-.375-2.937-1.043-3.652l.055-.738c.59.363 2.148-.485 1.125-1.774 0 .637-1.32.598-1.32-.598 0-1.62 1.511-.777 1.586-.418-.075-.59-.102-.964 0-1.304-.82.262-.895-.207-.793-.39.12-.216.277-.462.593-.462.461 0 .43.172.407.407.175-.262.226-.465.633-.864l-.008-.3.238.09.23-.372c-.246-.512-.582-.262-.828-.898-.207-.055-2.906-.301-2.812-1.582-.238 0-.887.824-.45 1.265h-.558c-.3.036-1-.175-1.45.743 1.106-1.106 1.825 1.53-.21 1.53-.3 0-.559-.124-.574-.335-.203.887 1.078 1.164 1.078 1.164 0 .266-.645 1.695-.953 2.008.207.21.273 1.48-.7 1.48.352-.949-.68-1.754-1.683-2.285h.004a2.636 2.636 0 0 1-.516-.254c-.613-.281-1.113-.437-1.113-.437v-.746c.308-.153.644-.418 1-.868a1.699 1.699 0 0 0 .36-1.382l-.012-.051c-.008-.035-.016-.074-.028-.11-.004-.015-.008-.035-.015-.05a.901.901 0 0 0-.04-.11c-.003-.011-.011-.027-.015-.043a2.104 2.104 0 0 0-.067-.133c-.007-.02-.02-.035-.03-.05-.016-.028-.032-.055-.048-.078-.015-.024-.027-.043-.043-.063-.015-.02-.03-.043-.047-.059-.015-.023-.035-.046-.05-.066l-.04-.039a1.736 1.736 0 0 0-.163-.156c-.028-.024-.059-.047-.09-.07a.539.539 0 0 0-.121-.086c-.004-.004-.004-.004-.008-.004a1.908 1.908 0 0 0-1.149-.278c-.09.008-.18.024-.265.043-.582.227-1.008.906-1.008 1.715 0 .762.379 1.414.91 1.672.008.004.016.004.024.008-.254.14-.47.222-.516.222.008.004.02.008.031.02 0 0 .004 0 .008.004.012.004.02.012.035.02 0 0 .004 0 .008.003.016.008.035.016.05.028.005 0 .009 0 .012.003.016.004.032.012.051.02.004.004.012.004.016.008.047.015.094.035.148.05.008 0 .016.005.024.005.02.007.043.011.066.015.008.004.016.004.024.008.03.004.058.012.09.016h.007c.196.015.422-.032.422-.032v.43c-.035 0-.336-.098-.422-.18-.008 0-.02.004-.031.004-.328.055-.543.157-.64.45-.094.292.003.402.156.609-.13.23-.47.32-.028.836-.031.191.012.504.293.597.094.032.172.047.25.063.168 0 .422.14.422.488v3.317c.156.011.32.03.473.043v-3.645a4.15 4.15 0 0 1 1.144.293l.02.012h-.004a.86.86 0 0 1 .144.027c.352.11.57.414.489.68-.082.27-.434.398-.782.293.415.797 1.856.406 2.168-.242.153-.012.29.261.415.52 0 0 .363.14 1.253.14 0 0-3.613 2.308-4.66 2.308-.445 0-1.437 0-1.437.336-.27 0-.664.461-.664.727.258-.2.468-.2.468-.2.22 0 .34.067.34.067-.078.078-.437.484-.437.8.3-.3.433-.3.433-.3s.317-.04.426.07c-.074.078-.207.352-.207.676 0 0 .188-.363.422-.363v3.469c0 .109-.48.21-.676.21v.438h.45a.588.588 0 0 0-.153.086.452.452 0 0 1 .145-.027.408.408 0 0 1 0 .816.4.4 0 0 1-.387-.285v.039c.031.344.351.601.715.574a.644.644 0 0 0 .605-.68.634.634 0 0 0-.398-.523l.414-.004v-.812l-.246.003v-2.613a.624.624 0 0 1-.328-.676c.152 0 .293.04.382.106-.14.312.215.644.215.644-.066-.343.137-.57.137-.57a1.13 1.13 0 0 1 .43-.371c.52-.258 1.226-.191 1.437.23 1.34-.351 2.492-1.699 2.492-1.699l.657 1.121c1.547 0 1.007-1.156.91-1.257.355 0 .855.261.855.84 0 1.425-4.14 1.624-4.14 3.355 0 .723.718 1 .718 1 0 1.574-1.082 2.512-1.82 2.512-1.184 0-2.09-.243-2.09 1.05h.414c-.39.391-.027.965-.027.965-.082-.414.117-.754.875-.75h.469c-.297.297-.125.754.015.89 0-.648.45-.886.852-.882h.34c-.09.09.058.516.277.734 0 0-.16-.613.543-.734 1.77-.309.105-2.133 2.8-2.637 0 0-1.339-.203-1.339-.937 0-.664 1.215-1.125 1.633-1.125.328-.047.64-.035.91.023.11 1.059 1.324 1.008 1.59 1.008 1.031 1.031-.262 2.684-.262 2.684-1.582 0-2.21.218-2.21 1.14h.3c-.168.168-.074.633.043.75 0-.511.484-.652 1.105-.62h.325c-.16.16-.13.546.039.714.007-.625.468-.73.8-.715h.27c-.102.106 0 .43.14.57 0 0-.042-.554.544-.558 1.109 0-.504-2.379 1.664-4.73-1.903.882-2.918-1.32-2.918-1.743.98 1.145 4.148 1.371 4.148-.582 0-1.578-1.46-2.316-1.34-2.941a.934.934 0 1 1 1.277.953c.895-.336 1.399-1.211 1.126-1.941zM17.715 20c-.086.004-.13-.113-.13-.152-.003-.043.028-.164.118-.164.211-.008.637.093.637.132.004.043-.41.176-.625.184zm-.137-.574c-.121-.008-.16-.172-.156-.23.004-.06.066-.22.191-.208.293.02.86.227.856.282-.004.058-.598.18-.89.156zm-.05-.73c-.13-.036-.141-.223-.126-.286.02-.058.118-.215.25-.183.309.082.88.414.864.476-.016.063-.676.07-.989-.008zm.96-2.071c.055-.129.043-.305.008-.469h-.016a.676.676 0 0 1-.675-.676.396.396 0 0 1 .027-.18l.023-.058c-.007.02-.015.035-.023.055v0a.676.676 0 0 1 1.324.183c0 .434-.304.829-.668 1.145zm9.196-1.14l-.164.222s-.22.07-.165-.242zm-1.106-.02h.473s-.02.379.324.414l-.074.121s-.918-.242-.723-.535z" fill="#034694"/><path d="M18.516 18.703c.015-.062-.555-.394-.864-.476-.132-.032-.23.125-.246.183-.015.063-.008.25.125.285.309.078.969.07.985.008m-.047.567c.004-.055-.563-.262-.856-.282-.125-.011-.187.149-.191.207-.004.059.035.223.156.23.293.024.887-.097.89-.155zm-.645-1.711v.214c.082.086.387.184.422.184v-.434s-.23.051-.422.036zm-.12 2.125c-.09.003-.122.12-.118.164 0 .039.043.156.129.152.215-.008.629-.14.625-.184 0-.039-.426-.14-.637-.132zm-.434 5.746c-.352.457-.098.87-.098.87 0-.316.36-.726.437-.804 0 0-.12-.066-.34-.066zm1.117.965a.624.624 0 0 0 .328.675c.05.028.105.051.164.063l.074.012h.031s-.355-.332-.21-.649a.718.718 0 0 0-.387-.101zm-.64-9.266c-.532-.262-.911-.91-.911-1.672 0-.809.426-1.492 1.008-1.715-.875.195-1.492.973-1.418 1.852.066.742.61 1.336 1.32 1.535zm5.64-1.863c.562-.11.754.394.754.574 0 .68-.532.953-.97.957 2.036-.004 1.317-2.637.216-1.531zm-1.364 5.847c.973 0 .91-1.27.7-1.48.312-.313.953-1.746.953-2.008 0 0-1.285-.277-1.078-1.168v-.004l-.02-.004c-.348.371-.137 1.14.418 1.332 0 0-.21.848-.742 1.383-.524-.02-1.262-.09-1.91-.336 1 .531 2.031 1.336 1.68 2.285zm-3.796-6.101c.25-.02.472.16.492.398a.445.445 0 0 1-.418.473.452.452 0 0 1-.492-.399c0 .371.3.672.671.672h.02c.031.168.043.34-.012.473.367-.32.668-.715.668-1.145a.674.674 0 0 0-1.324-.183.456.456 0 0 1 .395-.29zm7.168-.492c-.442-.442.207-1.262.449-1.262-.262 0-1.395.742-1.012 1.262h.563zm-5.668 7.324c.347.105.699-.024.78-.293.083-.27-.136-.57-.487-.68-.047-.012-.094-.023-.145-.031.508.289.5.867-.148 1.004zm-1.012-3.707s.5.156 1.113.437a2.278 2.278 0 0 1-.344-.262c-.308-.292-.558-.457-.77-.539zm.187 6.43c1.047 0 4.66-2.31 4.66-2.31-.89 0-1.253-.136-1.253-.136-.2.106-.614.313-1.497.832-.714.422-1.199.957-1.851 1.188a.571.571 0 0 1-.246.043c-.152-.012-.317-.036-.469-.043v-3.32c0-.348-.254-.485-.422-.485v3.86c-.285.152-.422.335-.5.511 0 0-.539-.074-.523.926 0-.266.394-.727.664-.727 0-.34.992-.34 1.437-.34zm9.016 5.343c-.266 0-1.48.05-1.59-1.008a2.6 2.6 0 0 0-.91-.02c.86 1.638 1.793 1.65 2.035 1.665.383.422.254 1.851-.297 1.824-2.008-.105-1.933 1.113-1.707 1.363 0-.922.625-1.136 2.207-1.136 0-.004 1.293-1.657.262-2.688zm.414 3.953h-.273c-.024.442.414.57.414.57-.141-.14-.243-.464-.141-.57zm-2.543.621c-.113-.117-.21-.582-.043-.75h-.297c-.023.477.34.75.34.75zm5.996-15.254c0-1.402-1.922-1.18-2.02-.101.087-.79 1.372-.906 1.372.082 0 1.02-2.395 1.691-2.395 3.418 0 1.902 1.903 2.078 1.707 3.816-.031.301-.351.696-.82.696-1 0-1.535-.426-1.848-1.028.317.852.88 1.504 2.043 1.504 1.207 0 1.32-.894 1.32-1.101 0-1.743-1.82-2.157-1.82-3.809 0-1.613 2.461-2.277 2.461-3.477zm-14.18 6.766c0 .54.22.746.22.746 0-.324.132-.597.206-.672-.11-.113-.426-.074-.426-.074zM31.5 23.031a.931.931 0 0 0-.93.848c.024-.113.098-.227.246-.336.559-.414 1.657.422 1.032 1.285a.93.93 0 0 0 .586-.863.934.934 0 0 0-.934-.934zm-4.277 10.832h-.328c-.032.621.367.715.367.715-.172-.168-.2-.555-.04-.715zm-9.211-3.304a.366.366 0 0 0-.145.027.606.606 0 0 0-.242.5c.05.164.203.285.387.285a.406.406 0 1 0 0-.813zM20.3 33.57h-.473c-.004.754.488.89.488.89-.14-.136-.312-.593-.015-.89zm1.46-4.777c0-1.73 4.141-1.934 4.141-3.355 0-.579-.5-.84-.855-.84.098.101.637 1.257-.91 1.257-1.399.47-4.442 3.114-2.328 4.032 0 .265-.036 2.246-1.305 2.09-1.828-.227-2.285.527-1.934 1.378 0-1.289.907-1.05 2.09-1.05.738 0 1.82-.938 1.82-2.512 0 0-.718-.277-.718-1zm-3.515 1.059v-3.47c-.234 0-.422.36-.422.36v2.961-.02l-.258.005.004.37c.196 0 .676-.101.676-.206zm.711 4.468s-.367-.574.027-.965h-.414c-.164.72.387.965.387.965zm2.55-.746h-.343c0 .535.617.739.617.739-.215-.22-.367-.645-.273-.739z" fill="#6A7AB5"/><path d="M40.031 28.895c.266 1.699-.66.835-.82.738-.16-.098-1.363-.508.273-1.074.04.066.082.128.141.18l-.156.491.039.024.367-.375c.05.016.102.012.156.016zm-.125-1.387l.063-.453.05-.004s.07.219.141.433c.063.008.113.04.168.059 1.031-1.457-.203-1.074-.39-1.059-.188.016-1.461-.144-.208 1.102a.59.59 0 0 1 .176-.078zm-.523.754c-.004-.024 0-.04 0-.059l-.442-.215.008-.05h.48a.686.686 0 0 1 .118-.2c-1.055-1.41-1.074-.125-1.117.059-.043.183-.586 1.34.972.543-.004-.027-.02-.05-.02-.078zm2.265-.746c-.074-.176-.312-1.442-1.113.14.063.055.125.102.168.172.23-.043.473-.082.473-.082l.02.043s-.208.148-.4.29l.013.058c0 .027-.008.054-.008.086 1.652.504.922-.54.847-.707zm-.894.937c-.027.067-.055.137-.106.195.118.215.243.457.243.457l-.036.032-.425-.309c-.051.027-.11.035-.164.05.03 1.716.797.704.933.583.145-.125 1.25-.738-.445-1.008zm-.695-.676a.417.417 0 0 0-.383.457c.02.23.222.407.457.383a.417.417 0 0 0 .383-.457.418.418 0 0 0-.457-.383m-32.657.442c-.004-.028-.011-.055-.011-.082l.011-.059-.394-.289.015-.043s.247.04.473.082a.702.702 0 0 1 .168-.172c-.797-1.582-1.039-.316-1.113-.14-.074.168-.809 1.21.851.703zm.637-.735c.07-.214.14-.437.14-.437l.051.004.063.457a.59.59 0 0 1 .176.078c1.254-1.246-.02-1.086-.207-1.102-.188-.015-1.426-.398-.39 1.059.054-.02.105-.05.167-.059zm.676 1.075a.699.699 0 0 1-.14.18c.073.23.16.491.16.491l-.044.024-.367-.375c-.047.016-.101.012-.156.02-.266 1.699.66.831.82.738.16-.102 1.367-.512-.273-1.078zm-.945.27c-.2.144-.422.308-.422.308l-.04-.032s.13-.242.243-.457a.79.79 0 0 1-.106-.195c-1.699.27-.586.883-.445 1.008.14.121.902 1.133.934-.582-.055-.016-.114-.024-.164-.05zm2-1.036c-.043-.184-.063-1.465-1.118-.059.051.063.09.13.118.203h.48l.012.047s-.23.114-.446.215c0 .02.004.04.004.059-.004.027-.02.05-.023.078 1.558.8 1.015-.36.973-.543zm-1.34.133a.424.424 0 0 0-.746.234.404.404 0 0 0 .097.309c.07.086.172.14.285.152a.425.425 0 0 0 .364-.695M8.82 19.34c-.011.02-.191.402-.246.523-.933-.578-1.383-.843-1.84-1.011.11-.157.243-.297.395-.407.2.02.371.07.547.16.043.02.082.043.125.067a6.599 6.599 0 0 1 .484.312c.008.008.305.203.457.305l.078.05m-.433.99c-.918-.224-1.625-.579-1.887-.938.035-.149.09-.29.16-.418.461.164.906.425 1.863 1.02-.035.081-.117.288-.136.335m-.102-1.512c-.137-.09-.258-.171-.379-.242.328-.262.739-.25 1.035-.191.164.101.305.234.422.387-.312-.106-.718-.165-1.078.046m-1.43 1.715a1.072 1.072 0 0 1-.363-.418 1.58 1.58 0 0 1-.023-.543c.37.403 1.152.711 1.867.89-.059.145-.215.524-.219.544a15.63 15.63 0 0 1-.625-.176 1.655 1.655 0 0 1-.148-.05 2.242 2.242 0 0 1-.34-.153c-.055-.031-.102-.063-.149-.094m1.286.621s.101.118.214.207a1.571 1.571 0 0 1-.488.008 1.029 1.029 0 0 1-.316-.375c.152.047.3.086.437.121l.153.04m1.492-1.864a2.055 2.055 0 0 0-.266-.047c-.043-.004-.09-.004-.14-.008-.09 0-.188.004-.297.012l-.516-.34c.375-.183.805-.062 1.086.063.055.101.098.21.133.32m-.266.094c.121.012.223.035.305.058.039.196.043.395.008.602a1.631 1.631 0 0 1-1.07 1.254c.343-.41.745-1.067.757-1.914m-1.59-.88a1.616 1.616 0 0 0-.468-.171c.312-.168.68-.238 1.054-.172.07.012.137.031.203.055a1.185 1.185 0 0 0-.789.289m1.172.879c.102-.008.196-.012.281-.008-.011.852-.433 1.5-.773 1.887a1.048 1.048 0 0 1-.215-.203l.23-.567.051-.129s.09-.222.118-.297c.02-.043.035-.082.054-.128.059-.141.133-.297.254-.555m-1.57 1.55c.047.149.129.274.219.376a1.83 1.83 0 0 1-.399-.18 1.817 1.817 0 0 1-.152-.328c.105.05.219.094.332.133m-.5-.227c.016.074.039.145.062.215a1.681 1.681 0 0 1-.277-.367c.066.054.137.105.215.152m32.3-1.367l.079-.055c.152-.098.449-.297.457-.3.043-.028.082-.055.12-.083.134-.09.25-.168.364-.23.043-.024.082-.047.125-.067.176-.09.348-.144.547-.16.152.11.285.246.395.407-.461.168-.907.433-1.844 1.011a29.75 29.75 0 0 0-.242-.523m.43.988c-.016-.047-.102-.254-.133-.336.957-.594 1.402-.855 1.863-1.02.07.13.125.27.16.419-.266.359-.969.714-1.89.937m.105-1.512c-.36-.21-.766-.152-1.082-.046.117-.153.262-.286.426-.387.296-.059.707-.067 1.035.191-.121.07-.242.153-.38.242m1.43 1.715c-.046.032-.097.063-.148.094-.105.059-.219.11-.34.152-.047.02-.101.035-.152.051-.18.059-.59.168-.621.176l-.219-.543c.715-.18 1.492-.488 1.867-.89a1.58 1.58 0 0 1-.027.542 1.032 1.032 0 0 1-.36.418m-1.285.621l.149-.039c.137-.035.289-.074.441-.12a1.068 1.068 0 0 1-.316.374c-.168.024-.332.02-.488-.008.113-.09.214-.207.214-.207m-1.492-1.863c.031-.11.078-.219.133-.316.281-.125.71-.25 1.086-.067l-.52.34a2.599 2.599 0 0 0-.296-.008c-.047 0-.094 0-.141.008a1.59 1.59 0 0 0-.262.043m.266.094c.012.847.414 1.504.758 1.914a1.625 1.625 0 0 1-1.063-1.856 1.69 1.69 0 0 1 .305-.058m1.59-.88a1.21 1.21 0 0 0-.79-.292c.067-.02.133-.04.204-.05.375-.067.742.003 1.054.171-.164.031-.316.09-.468.172m-1.172.879c.12.258.191.414.254.555.02.042.035.085.054.128.028.075.118.297.118.297l.05.13.227.566a.958.958 0 0 1-.215.203c-.336-.387-.758-1.035-.77-1.887.086-.004.18 0 .282.008m1.566 1.55c.117-.038.227-.081.336-.132-.039.12-.098.23-.156.328a1.677 1.677 0 0 1-.399.18.962.962 0 0 0 .22-.375m.503-.227c.074-.047.149-.098.215-.152a1.584 1.584 0 0 1-.281.367c.027-.07.05-.14.066-.215m-12.504-3.492c.067-.09.145-.195.223-.305.164.156.437.242.746.215.402-.04.719-.266.773-.535.004.02.008.035.008.055a.945.945 0 0 1-.851 1.027.938.938 0 0 1-.899-.457" fill="#ED1C24"/></g><metadata><rdf:RDF xmlns:rdf="http://www.w3.org/1999/02/22-rdf-syntax-ns#" xmlns:rdfs="http://www.w3.org/2000/01/rdf-schema#" xmlns:dc="http://purl.org/dc/elements/1.1/"><rdf:Description about="https://iconscout.com/legal#licenses" dc:title="chelsea,fc" dc:description="chelsea,fc" dc:publisher="Iconscout" dc:date="2017-12-15" dc:format="image/svg+xml" dc:language="en"><dc:creator><rdf:Bag><rdf:li>Icons8</rdf:li></rdf:Bag></dc:creator></rdf:Description></rdf:RDF></metadata></svg>