<?xml version="1.0" encoding="UTF-8"?><svg xmlns="http://www.w3.org/2000/svg" xmlns:xlink="http://www.w3.org/1999/xlink" viewBox="0 0 48 48" version="1.1"><g id="surface1"><path d="M45 25.805c0-2.078-1.71-3.766-3.816-3.766-.008 0-.012.004-.02.004 2.398-1.23 2.3-5.043 2.3-5.082l-.003-.074-.059-.043-.254-.176a9.903 9.903 0 0 1-.957-.719l.012-.847c.305.226.871.23 1.207-.122a.908.908 0 0 0 .227-.66 1.236 1.236 0 0 0-.364-.797c-1.234-1.187-2.328-2.375-2.328-2.375a.996.996 0 0 0-.39-.347c-.153-.07-.688-.313-1.094.3-.309.461-.32 1.06-.273 1.422 0-.003-.004-.003-.004-.003-.93-1.305-3.723-4.7-8.485-6.551-.328-2.059-1.531-2.465-2.137-2.465-.976 0-1.957.52-2.949 1.281h-.031l-.05-.12C25.097 3.726 24.554 3 24.093 3c-.364 0-1.008.48-1.715 1.785-.024 0-.043 0-.063.004-.988-.766-1.972-1.285-2.949-1.285-.605 0-1.808.406-2.133 2.457-4.62 1.793-7.379 5.039-8.39 6.426.02-.367-.024-.883-.29-1.285-.406-.614-.94-.372-1.097-.297a.99.99 0 0 0-.39.347s-1.114 1.211-2.34 2.403c-.172.168-.364.48-.38.765a.938.938 0 0 0 .239.672c.336.356.922.34 1.223.11l.015.777c-.426.363-.765.598-1.035.781-.094.067-.184.125-.262.184l-.058.043-.004.074c-.004.043-.106 3.86 2.3 5.086C4.685 22.074 3 23.75 3 25.812c0 2.079 1.71 3.766 3.816 3.766.223 0 .442-.027.657-.062-.164.12-.32.254-.461.406-.461.5-.985 1.371-.86 2.687.172 1.79 2.739 5.676 6.926 8.024a22.938 22.938 0 0 0 4.844 2.031c.371.91 1.023 1.883 2.262 1.883.996 0 1.62-.484 1.972-.902.23.476.797 1.355 1.907 1.355 1.125 0 1.68-.887 1.921-1.453.309.457.918 1 2.008 1 1.27 0 1.922-1.035 2.29-1.969a22.8 22.8 0 0 0 4.562-1.945c4.187-2.344 6.754-6.235 6.93-8.024.124-1.316-.399-2.187-.86-2.687a3.475 3.475 0 0 0-.477-.422c.243.047.493.074.747.074 2.105 0 3.816-1.691 3.816-3.77zM4.766 17.043c.062-.043.125-.09.195-.137.742-.508 1.988-1.36 4.031-4.215 1.281-1.8 6.153-7.675 14.969-7.675 8.809 0 13.687 5.879 14.973 7.675 2.05 2.871 3.296 3.72 4.043 4.223.066.047.125.09.183.129.004.57-.09 4.305-2.762 4.977-1.66.414-3.343-.536-5.14-2.907-.07-.086-.156-.21-.266-.363-.512-.715-1.469-2.05-2.851-3.355v-.016l-.18-.16c-.152-.133-.344-.301-.547-.465h.004c-1.852-1.543-4.336-2.887-7.457-2.887-2.898 0-5.246 1.16-7.047 2.563-.375.273-.96.761-1.078.886l-.043.043v.024c-1.395 1.308-2.355 2.652-2.867 3.375-.106.148-.192.27-.258.355-1.8 2.371-3.484 3.32-5.145 2.907-2.671-.672-2.757-4.41-2.757-4.977zm27.07-1.52l-.012 16.36-6.703 4.254c-.39.039-.781.082-1.16.082-.379 0-.77-.043-1.16-.082l-6.703-4.254V15.512c.441-.41.93-.809 1.457-1.188-.137.098-.266.2-.399.301h13.578c.16.102.336.234.504.375-.277-.23-.566-.457-.87-.676H17.554c1.695-1.21 3.832-2.156 6.406-2.156 5.969 0 9.594 5.086 10.781 6.758.113.152.203.277.274.37 1.558 2.056 3.054 3.083 4.547 3.114-1.293.602-2.196 1.89-2.196 3.395 0 1.27.645 2.386 1.621 3.074-.16-.027-.316-.059-.468-.059-1.426 0-2.063.72-2.442 1.149l-.055.058c-2.886 3.243-6.648 5.422-10.191 6.016l6.297-3.992.012-16.235c-.102-.097-.2-.195-.305-.293zM25.832 36.04c-.238.043-.477.07-.71.098.233-.028.472-.055.71-.098zm-3.031.098c-.235-.028-.473-.055-.711-.094.238.039.476.066.71.094zm-.711-.094c-3.543-.594-7.305-2.773-10.188-6.016l-.05-.054c-.38-.434-1.016-1.153-2.45-1.153-.12 0-.242.028-.367.043a3.736 3.736 0 0 0 1.598-3.05c0-1.516-.914-2.817-2.223-3.415 1.473-.054 2.953-1.07 4.5-3.101.07-.09.156-.215.266-.367.476-.672 1.355-1.899 2.62-3.125v16.242zM6.816 29.281c-1.937 0-3.511-1.558-3.511-3.472 0-1.91 1.574-3.47 3.511-3.47 1.938 0 3.512 1.56 3.512 3.47 0 1.914-1.574 3.472-3.512 3.472zm33.871.84c.418.457.895 1.25.782 2.457-.168 1.73-2.68 5.496-6.778 7.793-3.375 1.899-6.984 2.86-10.73 2.86-3.746 0-7.356-.961-10.734-2.86-4.098-2.297-6.606-6.062-6.774-7.793-.113-1.203.363-2 .781-2.457.57-.617 1.403-1 2.168-1 1.293 0 1.875.656 2.22 1.047l.054.059c3.449 3.878 8.156 6.293 12.285 6.293 4.121 0 8.832-2.41 12.285-6.293l.059-.063c.343-.387.925-1.043 2.21-1.043.77 0 1.602.383 2.172 1zm-3.015-4.316c0-1.91 1.574-3.465 3.512-3.465 1.937 0 3.511 1.555 3.511 3.465s-1.574 3.468-3.511 3.468c-1.938 0-3.512-1.554-3.512-3.468z"/><path d="M44.695 25.805c0 1.91-1.574 3.468-3.511 3.468-1.938 0-3.512-1.558-3.512-3.468s1.574-3.465 3.512-3.465c1.937 0 3.511 1.555 3.511 3.465zM6.816 29.28c1.938 0 3.512-1.558 3.512-3.472 0-1.91-1.574-3.47-3.512-3.47-1.937 0-3.511 1.56-3.511 3.47 0 1.914 1.574 3.472 3.511 3.472zm6.41 11.09c3.38 1.899 6.993 2.86 10.735 2.86 3.746 0 7.36-.961 10.734-2.86 4.098-2.297 6.606-6.062 6.774-7.793.117-1.207-.36-2.004-.782-2.457-.57-.617-1.402-1-2.167-1-1.29 0-1.868.652-2.215 1.043l-.055.063c-3.457 3.878-8.164 6.289-12.29 6.289-4.124 0-8.831-2.41-12.284-6.293l-.051-.059c-.348-.39-.926-1.047-2.219-1.047-.77 0-1.597.387-2.168 1.004-.422.453-.898 1.25-.781 2.457.164 1.73 2.672 5.496 6.77 7.793zm25.708-27.68c-1.286-1.8-6.164-7.675-14.973-7.675-8.816 0-13.688 5.879-14.969 7.675-2.043 2.856-3.289 3.707-4.031 4.215-.07.047-.133.094-.195.137 0 .566.086 4.305 2.757 4.977 1.66.414 3.344-.536 5.145-2.903.066-.09.152-.21.258-.36 1.215-1.702 4.902-6.89 11.035-6.89 6.129 0 9.816 5.18 11.031 6.883.11.152.196.277.266.363 1.797 2.371 3.48 3.32 5.14 2.907 2.672-.672 2.766-4.407 2.762-4.977-.055-.043-.117-.082-.183-.129-.747-.504-1.993-1.352-4.043-4.223zM30.34 5.844c-1.426-.473-2.504-.84-4.262-.992.809-.555 1.527-1.028 2.356-1.028.433 0 .804.164.89.465.082.274-.137.395-.215.375-.082-.023-.14-.047-.12-.117.023-.078-.04-.277-.317-.277-.281 0-.387.253-.387.43 0 .179.285.472.805.472.512 0 .773-.336.754-.649.246.36.39.72.496 1.32m-6.313-1.847c-.043.27-.359.527-.675.527-.317 0-.415-.05-.415-.05-.046.074-.09.129-.14.21.289-.011.957-.03 1.226-.03.266 0 1.008.038 1.168.05-.257-.598-.753-1.426-1.097-1.426h-.047c-.078 0-.36.239-.508.45-.195.273.488.27.488.27zM41.84 15.691l.004-.78c-1.348-1.22-1.985-2.446-1.985-2.446s.496-.184.72-.461a.78.78 0 0 0 .132-.508.593.593 0 0 0-.324-.43c-.157-.066-.446-.214-.766.22-.34.472-.25 1.362-.203 1.57 0 0 .629 1.078 2.422 2.835M17.59 5.844c1.426-.473 2.504-.84 4.262-.992-.813-.555-1.532-1.028-2.356-1.028-.437 0-.808.164-.894.465-.079.274.14.395.218.375.078-.023.137-.047.117-.117-.019-.078.04-.277.317-.277.281 0 .387.253.387.43 0 .179-.282.472-.805.472-.512 0-.773-.336-.75-.649-.246.36-.39.72-.496 1.32m12.246 36.954c-.785.203-1.348.379-2.672.539 0 0 .04.129.328.121.113-.008.125-.035.164-.043.086-.016.207.07.196.215-.012.098-.098.223-.391.223-.293 0-.637-.239-.809-.457 0 0-.175.039-.359.046 0 0 .566.782 1.68.782 1.218 0 1.675-1.082 1.863-1.426M6.09 15.69l-.004-.78c1.348-1.22 1.98-2.446 1.98-2.446s-.492-.184-.714-.461a.78.78 0 0 1-.133-.508.593.593 0 0 1 .324-.43c.156-.066.441-.214.762.22.343.472.254 1.362.207 1.57 0 0-.63 1.078-2.422 2.835m1.488-3.086c-.18.317-.637 1.07-1.797 2.141-.191.18-.672.328-.945.027a.65.65 0 0 1-.156-.468c.011-.223.144-.48.28-.59.231-.195 1.228-1.188 1.935-1.969.02.14.144.379.144.379.098.133.219.324.54.48m17.526 30.793c-.203.29-.335.274-.578.274-.125 0-.3.098-.3.281.003.14.125.258.32.258.441 0 .781-.606.871-.863 0 0 .262-.012.336-.02 0 0-.465 1.371-1.676 1.371-1.21 0-1.703-1.351-1.703-1.351s1.02.058 1.602.058c.582 0 .953-.004 1.128-.008m-6.761-.601c.789.203 1.351.379 2.676.539 0 0-.043.129-.332.121-.11-.008-.125-.035-.165-.043-.082-.016-.207.07-.195.215.016.098.098.223.395.223.293 0 .636-.239.808-.457 0 0 .176.039.36.046 0 0-.567.782-1.68.782-1.223 0-1.676-1.082-1.867-1.426m22.004-30.192c.183.317.64 1.07 1.8 2.141.192.18.672.328.946.027a.65.65 0 0 0 .156-.468c-.012-.223-.145-.48-.281-.59-.235-.195-1.23-1.188-1.938-1.969-.02.14-.14.379-.14.379-.102.133-.22.324-.543.48M25.12 36.137l6.703-4.254.012-16.36.152.145c-.43-.406-.902-.813-1.418-1.195h-.011c.234.172.464.343.675.523a5.48 5.48 0 0 0-.5-.371h-13.57c-.379.285-.738.582-1.066.887v16.37l6.703 4.255c.39.039.781.082 1.16.082.383 0 .77-.043 1.16-.082zm-.219.316c-.312.027-.632.067-.941.067-.309 0-.625-.04-.941-.067l.94.598z" fill="#FFE500"/><path d="M32 15.684c-.055-.051-.113-.098-.164-.149v-.012c.055.051.11.106.164.16zm-9.2 20.453l-6.702-4.254V15.512c.152-.14.316-.278.48-.414v-.032h.031c.02-.015.04-.035.063-.05v.05h14.594v-.046a.6.6 0 0 0 .05.046h.043v.043c.168.141.325.282.477.426l-.012 16.348-6.703 4.254c-.39.039-.777.082-1.16.082-.379 0-.77-.043-1.16-.082zm.606-11.903s.125.465.395.891c.265-.438.379-.89.379-.89zm.79-1.066c.124.066.284-.02.327-.242.02-.133.063-.403.004-.43-.054-.023-.254.137-.347.277-.09.145-.114.325.015.395zm-.864-.395c-.09-.14-.277-.3-.336-.277-.058.024-.02.297 0 .43.031.222.2.308.328.242.125-.07.106-.25.008-.395zm-4.215-4.886l1.133.273.61-1.68v-.425zm-.582.086l.336.902h9.574v-.516H27.38v-.437h.875v-1.918h-.809l-.273-.527-.27.527h-.804v1.918h.875v.437H24.87v-.437h.875v-1.918h-.805l-.273-.527-.273.527h-.805v1.918h.879v.437h-2.145v-.437h.875v-1.918h-.808l-.27-.527-.277.527h-.805v1.918h.883v.437l-1.7.004zm-1.863 1.062v.508h.992v.16H30.27v-.16h.988v-.508zm0 12.54l5.894 3.741v-.007c.043-.254.043-.407.028-.63-.016-.226-.223-.538-.516-.913-.289-.375-.289-.72-.168-1.59.121-.867.094-1.422.094-1.422s-.305.012-.746 0c-.438-.02-.801-.27-.832-1.32-.031-1.047-.055-3.547-.13-3.809-.07-.262-.35-.309-.472-.344-.125-.031-.129-.207-.012-.27.32-.152.7-.534.56-.777-.145-.238-.7-.187-1.075-.007s-.77.57-.871.68c-.098.105-.184.105-.172-.009.012-.125-.07-.695-.117-.894a4.272 4.272 0 0 0-.297-.68c-.063-.097 0-.137.101-.097.098.039.325.128.536.187.21.063.414-.043.511-.238.102-.203.301-.63.403-.82.097-.188.257-.145.39-.118.13.032.254.11.371.157.121.05.223.043.266-.02.043-.059.09-.078.164-.23.07-.149.16-.079.172-.016.36 2.148 1.305 2.246 1.305 2.246-.145.36-.473.93-.555 1.074-.082.133-.117.324-.137.473-.015.148.051 1.57.153 2.09.101.52.425.316.53.16.095-.16.41-.82.41-.82s.08-.18.08-.332c0-.149-.263-.477-.321-.579-.063-.101-.285-.3-.285-.8s.457-.844.62-.977a.415.415 0 0 0 .137-.422c-.07-.387-.484-1.195-.683-1.508-.203-.308-.598-.898-.598-.898h.82l.528-1.082.574 1.09.598.004.62-1.07.485 1.07h.805c-.485.449-.684 1.125-.684 1.578v.492c0 .21-.105.555-.105.555s.699.527.804.617c.047.035.094.055.063.148-.055.153-.531.364-.578.403-.11.093-.137.152-.11.242.036.09.125.105.305.043.184-.059.563-.254.883-.39.316-.138.742-.102.742-.102v-.602h-1.2v-1.918l-.214-.336.531-.93.532.938-.211.332v1h.613v-1L27 22.586l.531-.93.528.93-.207.332v1h.617v-1l-.219-.332.531-.93.532.93-.211.332.007 1.91h-1.207v.887c.274.254.532.828.532 1.168 0 .347-.227.496-.227.496.074.27.063.383.027.633-.027.25-.347.64-.347.64v4.57c0 .31-.727.282-.727.016v-4.48c-.414-.445-1.535-.797-1.535-.797-.41.406-.664 1.113-.664 1.113.18.121.457 0 .562-.12a.365.365 0 0 1 .438-.075c.117.074.148.101.105.277-.046.188-.12.485-.12.692 0 .215.241.164.421.18.367.035.43.437.399.66-.032.226-.137.707-.137 1.007 0 .293.016.594.043.762.031.164.094.344.074.555-.016.285-.195.332-.379.148-.18-.18-2.715-2.847-2.715-2.847-.168.542.532 1.468.758 1.753.23.286.215.496.016.692-.196.191-.578.297-.653.476-.074.176.184.723.715 1.395.485.613-.414 1.039-1.09 1.21l.559.356 7.29-4.625.007-11.035H16.672zm10.492-4.286v-.613s-.168-.254-.574-.254c-.41 0-.656.125-.656.223 0 .168.367.644 1.23.644zm-14.68-14.484l.637 1.21.621-.66zM6.836 28.852c-1.703 0-3.078-1.36-3.078-3.04s1.379-3.042 3.078-3.042c1.703 0 3.086 1.363 3.086 3.043 0 1.68-1.383 3.039-3.086 3.039zm1.496-5.016c-.133.148-.39.258-.652.328 0 0-.13.07-.2.188-.117.175-.511 1.125-.527 1.671-.008.192.156.344.41.309.254-.035.7-.023 1.41-.684.16-.144.696-.765.524-1.175-.14-.325-.379-.598-.645-.836 0 0-.132-.106-.183-.149 0 0-.008.196-.137.348zm-2.59-.461c0 .086.074.273.403.375.328.102.793.25 1.168.25.375 0 .945-.121.945-.477 0-.113-.031-.183-.13-.25-.386-.242-.847-.328-1.32-.328-.312 0-.613.051-.898.145-.101.035-.168.207-.168.285zm-.945 3.93c-.031-.149-.125-1.035-.02-1.703.024-.18-.273-.407-.332-.5-.05-.094-.113-.165-.16-.235-.058-.097-.125.016-.125.016-.074.254-.117.52-.117.797 0 .71.273 1.39.656 1.761.086.075.125.012.098-.136zm.156-2.246c.094-.364.465-1.008.55-1.114.083-.101.056-.234.056-.297 0-.066-.036-.164-.036-.23 0-.117-.074-.113-.125-.094-.41.192-.734.551-.96.942a.544.544 0 0 0-.016.367c.055.101.219.445.355.515.133.079.16-.007.176-.09zm1.973 2.976c-.16-.426-.254-1.12-.227-1.82.035-.777.356-1.43.45-1.7.093-.273-.063-.3-.212-.335a4.58 4.58 0 0 1-.44-.098c-.184-.055-.243-.082-.403-.129-.157-.039-.367-.023-.461.149-.098.164-.692 1.015-.692 2.445 0 .437.13 1.305.473 1.488.328.188.887.375 1.395.375h.058c.16.004.16-.098.059-.375zm2.652-2.355c0-.188-.035-.36-.055-.453-.015-.114-.109-.13-.148-.047-.04.074-.234.492-.688.855-.449.367-.94.567-1.628.578-.082.004-.125.13-.125.242 0 .118.074.98.359 1.301.074.082.144.192.305.145 1.132-.363 1.98-1.38 1.98-2.621zm34.695.12c0 1.684-1.378 3.04-3.082 3.04-1.703 0-3.082-1.356-3.082-3.04 0-1.679 1.38-3.038 3.082-3.038 1.704 0 3.082 1.36 3.082 3.039zm-4.5-2.288c0 .355.567.476.946.476s.84-.148 1.168-.25c.332-.101.402-.289.402-.37 0-.087-.062-.255-.168-.286a2.866 2.866 0 0 0-.898-.145c-.477 0-.934.083-1.32.329-.102.058-.13.136-.13.246zm-.515 2.129c.71.656 1.156.648 1.406.683.254.035.418-.12.41-.308-.015-.555-.41-1.5-.527-1.672-.074-.117-.2-.192-.2-.192-.261-.066-.519-.183-.648-.332-.133-.144-.14-.34-.14-.34-.051.04-.184.149-.184.149-.266.234-.504.512-.64.836-.172.41.363 1.031.523 1.176zm1.484 2.504c.285-.32.356-1.18.356-1.297 0-.118-.04-.239-.125-.243-.692-.015-1.176-.214-1.633-.582-.445-.363-.645-.78-.684-.855-.043-.086-.129-.066-.152.047-.016.101-.05.27-.05.453 0 1.242.847 2.258 1.983 2.621.157.05.231-.059.305-.144zm2.348-1.61c0-1.426-.598-2.277-.692-2.45-.093-.163-.304-.183-.46-.144-.16.047-.22.075-.403.13a4.475 4.475 0 0 1-.441.1c-.149.032-.309.063-.211.337.097.273.414.918.445 1.695.031.7-.062 1.399-.219 1.82-.105.278-.105.383.051.38h.063c.507 0 1.066-.192 1.394-.376.34-.187.473-1.054.473-1.492zm.164-1.394c.14-.075.3-.418.355-.52a.533.533 0 0 0-.015-.363c-.23-.399-.547-.754-.965-.942-.05-.023-.117-.023-.117.09 0 .067-.04.168-.04.23 0 .067-.027.2.06.298.081.105.452.753.55 1.117.016.078.035.164.172.09zm.734.523c0-.273-.039-.539-.117-.797 0 0-.066-.11-.129-.012-.043.07-.105.141-.16.239-.055.093-.352.316-.328.496.105.668.012 1.558-.016 1.703-.035.145.012.215.09.137.383-.371.66-1.047.66-1.766zm-4.914-8.539c.29-.254.285-.574.035-.848l-.21-.23-.899.805.16.175c.274.293.633.356.914.098zm1.262 13.27c.355.39.766 1.074.664 2.128-.137 1.438-2.445 5.157-6.555 7.465-3.312 1.86-6.851 2.801-10.52 2.801-3.663 0-7.202-.941-10.515-2.8-4.113-2.313-6.418-6.028-6.558-7.466-.098-1.054.308-1.738.671-2.128.48-.524 1.207-.864 1.848-.864 1.098 0 1.559.524 1.918.93 3.559 4 8.39 6.473 12.637 6.473 4.246 0 9.082-2.473 12.637-6.473.359-.406.82-.93 1.921-.93.637 0 1.368.34 1.852.864zM16.28 38.652l1.13-2.007-.86-.47-1.059 1.891c-.32.567-.648.926-1.187.621-.532-.296-.41-.726-.082-1.312l1.062-1.895-.855-.468-1.125 2c-.617 1.101.16 1.785.77 2.117.648.351 1.593.613 2.206-.477zm5.434-.742l-.832-.219-.653 2.414-1.222-2.91-.762-.199-.926 3.41.828.219.657-2.43 1.242 2.93.742.2zm2.015.215l-.937-.05-.188 3.527.938.046zm2.848.164l.988-.133-.07-.468-2.918.406.067.46 1.003-.14.43 3.035.934-.125zm5.035 1.816l-.144-.449-1.301.41-.355-1.082 1.062-.34-.148-.449-1.063.34-.305-.93 1.09-.351-.148-.445-1.988.64 1.105 3.356zm3.496-3.96c-.593-1.024-1.57-1.047-2.668-.422l-1.21.687 1.792 3.074 1.207-.687c1.25-.711 1.368-1.79.88-2.652zm-2.464.003l-.36.207 1.317 2.247.336-.192c.699-.394.792-.969.335-1.754-.312-.558-.789-.98-1.628-.508zM5.215 17.29l-.004-.031.027-.024c.703-.476 2.016-1.37 4.102-4.293 1.254-1.757 6.023-7.5 14.62-7.5 8.602 0 13.364 5.743 14.618 7.5 2.106 2.942 3.36 3.793 4.11 4.305l.027.02v.035c-.031.875-.293 3.77-2.426 4.304-1.473.368-3.004-.53-4.816-2.918-1.368-1.921-5.153-7.25-11.512-7.25-6.36 0-10.148 5.329-11.516 7.25-1.804 2.387-3.34 3.286-4.816 2.918-2.121-.53-2.387-3.44-2.414-4.316zm30.754.117l.625.688 1.058-.938.305.34-.668 1.492.8.633.544-1.605c.008.007.554.273 1.156-.262.508-.45.34-1.067-.191-1.645l-.973-1.07zm.758-4.71l-2.739 2.269 1.48 1.742.368-.3-.875-1.032.89-.73.715.84.368-.305-.72-.844.755-.625.734.863.367-.3zm-3.11-2.286l.75.672-2.082 2.277.703.625 2.078-2.28.739.66.32-.344-2.191-1.954zm-3.765.39l-.473.204c.105.355.351.726.89 1.05.669.395 1.395.329 1.739-.23.246-.386.25-.71-.051-1.289-.074-.164-.176-.281-.242-.433-.133-.243-.254-.438-.14-.625.124-.204.413-.223.675-.063.273.164.387.434.445.617l.434-.18a1.669 1.669 0 0 0-.777-.925c-.766-.453-1.387-.336-1.649.09-.262.43-.187.789.012 1.152 0 0 .12.207.191.348.176.289.375.648.235.87-.172.286-.465.348-.754.173-.371-.23-.457-.496-.535-.758zm-3.09-.363l2.18.739.156-.446-1.285-.44.378-1.075 1.051.355.16-.445-1.054-.36.32-.921 1.086.367.152-.445-1.98-.672zm-4-.148l.941.02.031-1.618 1.403.024-.028 1.617.942.016.058-3.536-.937-.011-.027 1.437-1.403-.02.02-1.445-.938-.015zM18.82 9.23c.149.625.711 1.77 2.489 1.395a1.842 1.842 0 0 0 1.02-.531l-.325-.367a1.212 1.212 0 0 1-.715.414c-.86.18-1.371-.508-1.5-1.102-.187-.879.328-1.484.914-1.61.418-.09.672.02.832.083h.008l.11-.45c-.286-.113-.622-.187-1.15-.074-1.163.242-1.933 1.09-1.683 2.242zm-4.652.754l1.898 3 .723-.449-1.352-2.137 3.024 1.11.652-.403-1.902-3-.727.454 1.344 2.117-2.992-1.106zm-2.48 2.418l1.714 3.368.418-.442-.465-.894.829-.88.937.391.691-.726-3.511-1.461zm-4.075 4.621l2.742 2.274.415-.488-1.934-1.614 2.594.836.273-.32-1.238-2.45 1.945 1.61.61-.707-2.743-2.273-.664.785 1.242 2.539-2.668-.863z" fill="#DA020E"/></g><metadata><rdf:RDF xmlns:rdf="http://www.w3.org/1999/02/22-rdf-syntax-ns#" xmlns:rdfs="http://www.w3.org/2000/01/rdf-schema#" xmlns:dc="http://purl.org/dc/elements/1.1/"><rdf:Description about="https://iconscout.com/legal#licenses" dc:title="manchester,united" dc:description="manchester,united" dc:publisher="Iconscout" dc:date="2017-12-15" dc:format="image/svg+xml" dc:language="en"><dc:creator><rdf:Bag><rdf:li>Icons8</rdf:li></rdf:Bag></dc:creator></rdf:Description></rdf:RDF></metadata></svg>